<?xml version="1.0" encoding="UTF-8"?>
<svg version="1.1" xmlns="http://www.w3.org/2000/svg" width="500" height="500">
<path d="M0 0 C165 0 330 0 500 0 C500 165 500 330 500 500 C335 500 170 500 0 500 C0 335 0 170 0 0 Z " fill="#333333" transform="translate(0,0)"/>
<path d="M0 0 C6 2 12 4 18 6 C20.35680213 6.08397157 22.71594081 6.10728187 25.07421875 6.09765625 C25.7580513 6.0962413 26.44188385 6.09482635 27.1464386 6.09336853 C29.32683722 6.08777876 31.50713251 6.07522822 33.6875 6.0625 C35.16731622 6.05748367 36.64713406 6.052921 38.12695312 6.04882812 C41.75133557 6.03781271 45.3756577 6.02055512 49 6 C49.06316406 7.05574219 49.12632812 8.11148438 49.19140625 9.19921875 C50.11600789 21.2039501 53.17762976 31.76521817 57.38916016 43.01733398 C58 45 58 45 58 48 C58.66 48 59.32 48 60 48 C60.2784375 46.948125 60.2784375 46.948125 60.5625 45.875 C64.59127066 37.81745869 73.64514604 33.89619474 81.7578125 31.0234375 C95.86331501 27.08273575 111.33086655 27.97986542 125.4609375 31.25390625 C129.3342607 32.07046776 133.12177217 32.55739489 137.0625 32.875 C138.24972656 32.97554687 139.43695313 33.07609375 140.66015625 33.1796875 C144.48225254 32.97405425 146.71993828 31.91376605 150 30 C150.99 29.505 150.99 29.505 152 29 C154.06241956 33.12483911 153.76671225 37.54348502 153 42 C151.45253604 45.08456544 149.77532343 47.93659979 147.93383789 50.84521484 C144.82521293 55.88301793 143.78354115 60.12855358 144 66 C139.09417019 64.72550896 134.510335 63.34253476 130 61 C128.66224092 58.67912267 128.52393441 57.06166764 128.3203125 54.41015625 C127.71392186 49.84743647 125.05043598 46.33808674 122 43 C116.99983624 39.50950107 111.63838998 37.86515069 105.5625 37.8125 C104.82128906 37.79832031 104.08007812 37.78414062 103.31640625 37.76953125 C100.60462399 38.03933758 98.47805515 38.89427169 96 40 C95.17744622 48.39407816 95.17744622 48.39407816 97.9375 56.125 C103.40057691 62.38723205 111.76981533 66.13466077 119 70 C119.67538818 70.38615479 120.35077637 70.77230957 121.04663086 71.17016602 C133.79437509 78.16286821 152.82115065 73.58055336 166.328125 70.15625 C175.4566151 67.19841522 183.72728249 61.09497335 189 53 C191.95674764 47.00810612 193.01355651 40.62190252 192 34 C189.82660072 29.57270518 187.53503435 26.99099069 183 25 C180.5 24.33333333 180.5 24.33333333 178 25 C174.62299845 27.76300127 172.71600407 29.71143399 172 34 C171.46183601 42.31049396 171.80603075 49.28124098 175 57 C170.18965626 52.85315195 168.24650471 48.86145327 167.7109375 42.64453125 C167.52340473 34.55504946 168.01405403 29.35008572 173.5625 23.125 C177.02991767 20.4530996 180.33220935 20.33498213 184.60546875 20.59765625 C188.40462651 21.23601392 190.23316477 22.29750977 193 25 C197.65848278 31.66027113 199.19971388 37.97200809 198 46 C195.46529856 56.36537126 189.85283512 64.96174462 181 71 C177.08754134 73.20716633 173.09172911 75.14911045 169 77 C168.29746094 77.32097656 167.59492188 77.64195312 166.87109375 77.97265625 C158.72062031 81.35876108 149.75867408 82.33687208 141 82 C141 82.66 141 83.32 141 84 C141.86044922 84.36351562 141.86044922 84.36351562 142.73828125 84.734375 C145.42523352 86.23795451 147.12138143 87.9706797 149.1875 90.25 C149.88230469 90.99765625 150.57710937 91.7453125 151.29296875 92.515625 C153.26271785 95.38235366 153.66789689 97.56992011 154 101 C152.23017066 101.31813686 150.45905373 101.62911009 148.6875 101.9375 C147.20830078 102.19853516 147.20830078 102.19853516 145.69921875 102.46484375 C123.90935062 105.61712668 98.34511835 108.85773359 79.64599609 95.26757812 C77.40477584 93.54161913 75.17909472 91.8039701 73 90 C77.37210765 102.86940123 77.37210765 102.86940123 85 114 C86.485 115.98 86.485 115.98 88 118 C84.37 118 80.74 118 77 118 C81.18413057 126.0893191 86.47321005 129.79979693 94.875 133.14453125 C98.37913427 134.10378801 101.43224741 134.30064934 105.0625 134.3125 C106.84333984 134.33763672 106.84333984 134.33763672 108.66015625 134.36328125 C112.27811687 133.96974869 114.15070202 133.23238576 117 131 C118.59631321 126.21106036 118.83175756 121.82986662 116.75 117.25 C114.97974408 114.97395667 113.05345758 113.01951613 111 111 C111.63800537 110.98541748 112.27601074 110.97083496 112.93334961 110.95581055 C124.34011482 110.6659556 135.55149915 110.3701935 146.73217773 107.9284668 C150.48249446 107.13090553 153.29390908 106.93706761 157 108 C157.61907755 117.35494966 156.06471107 122.49307195 150.875 130.125 C142.7868311 139.25840919 129.69644955 142.93453395 118 144 C96.39673856 145.10085585 77.3023267 142.21887884 58 132 C58.99 127.38 59.98 122.76 61 118 C45.49338549 118.08851276 45.49338549 118.08851276 31 123 C29.33908066 123.68085913 27.67359972 124.35093437 26 125 C27.3984791 121.5912072 28.85006933 120.12606165 32 118.25 C32.70125 117.82203125 33.4025 117.3940625 34.125 116.953125 C36 116 36 116 38 116 C37.68886236 107.9533369 37.33788945 100.59655023 34.62109375 92.953125 C34 91 34 91 34 88 C21.13 88 8.26 88 -5 88 C-5.33 89.98 -5.66 91.96 -6 94 C-6.350625 95.051875 -6.70125 96.10375 -7.0625 97.1875 C-8.80104917 104.25759997 -8.18904263 110.86574421 -7 118 C-15.25 118 -23.5 118 -32 118 C-30.52868348 115.05736696 -29.07976464 112.61256307 -27.28125 109.90625 C-22.70399341 102.30334923 -20.25915643 93.88389517 -17.5 85.5 C-16.90121248 83.705753 -16.30150464 81.91181291 -15.70092773 80.11816406 C-14.44326391 76.3573152 -13.1924237 72.59427633 -11.94482422 68.83007812 C-10.30875553 63.90726893 -8.63789921 58.99708489 -6.9536438 54.09057617 C-5.63279313 50.24123766 -4.32179035 46.38858466 -3.01220703 42.53540039 C-2.38130152 40.68501453 -1.74672233 38.83587699 -1.10839844 36.98803711 C-0.21840608 34.40719966 0.65621854 31.8216311 1.52734375 29.234375 C1.7942955 28.47159241 2.06124725 27.70880981 2.33628845 26.9229126 C3.99478111 21.92954193 4.33672027 18.73786079 2.02734375 14.0078125 C1.48787109 13.07582031 1.48787109 13.07582031 0.9375 12.125 C-1.06280933 8.30556878 -1.4435891 5.34717318 -1 1 C-0.67 0.67 -0.34 0.34 0 0 Z " fill="#FCFCFC" transform="translate(162,164)"/>
<path d="M0 0 C5.44432812 2.25990979 7.72697583 6.02867318 10.08203125 11.2265625 C12.93708459 19.85246834 10.90713982 28.04056347 7 36 C0.93330439 46.10533159 -7.44766175 51.22666042 -18 56 C-18.70253906 56.32097656 -19.40507812 56.64195312 -20.12890625 56.97265625 C-28.27937969 60.35876108 -37.24132592 61.33687208 -46 61 C-46 61.66 -46 62.32 -46 63 C-45.42636719 63.24234375 -44.85273438 63.4846875 -44.26171875 63.734375 C-41.57476648 65.23795451 -39.87861857 66.9706797 -37.8125 69.25 C-37.11769531 69.99765625 -36.42289062 70.7453125 -35.70703125 71.515625 C-33.73728215 74.38235366 -33.33210311 76.56992011 -33 80 C-34.76982934 80.31813686 -36.54094627 80.62911009 -38.3125 80.9375 C-39.79169922 81.19853516 -39.79169922 81.19853516 -41.30078125 81.46484375 C-64.44183024 84.81259846 -89.38713186 87.57373338 -109 73 C-109.55085266 72.67531235 -110.10170532 72.35062469 -110.66925049 72.01609802 C-115.97023247 68.71147022 -117.56628139 65.45492534 -119.2734375 59.55859375 C-119.65455185 58.3515554 -119.65455185 58.3515554 -120.04336548 57.12013245 C-120.84385076 54.5657998 -121.60961142 52.00254044 -122.375 49.4375 C-122.91052498 47.71089361 -123.44826483 45.98497254 -123.98828125 44.25976562 C-127.69143998 32.35659038 -127.69143998 32.35659038 -129 27 C-128.34 27 -127.68 27 -127 27 C-126.814375 26.29875 -126.62875 25.5975 -126.4375 24.875 C-122.40872934 16.81745869 -113.35485396 12.89619474 -105.2421875 10.0234375 C-91.13668499 6.08273575 -75.66913345 6.97986542 -61.5390625 10.25390625 C-57.6657393 11.07046776 -53.87822783 11.55739489 -49.9375 11.875 C-48.75027344 11.97554687 -47.56304687 12.07609375 -46.33984375 12.1796875 C-42.51774746 11.97405425 -40.28006172 10.91376605 -37 9 C-36.34 8.67 -35.68 8.34 -35 8 C-32.93758044 12.12483911 -33.23328775 16.54348502 -34 21 C-35.54746396 24.08456544 -37.22467657 26.93659979 -39.06616211 29.84521484 C-42.17478707 34.88301793 -43.21645885 39.12855358 -43 45 C-47.90582981 43.72550896 -52.489665 42.34253476 -57 40 C-58.33775908 37.67912267 -58.47606559 36.06166764 -58.6796875 33.41015625 C-59.28607814 28.84743647 -61.94956402 25.33808674 -65 22 C-70.00016376 18.50950107 -75.36161002 16.86515069 -81.4375 16.8125 C-82.54931641 16.79123047 -82.54931641 16.79123047 -83.68359375 16.76953125 C-86.39537601 17.03933758 -88.52194485 17.89427169 -91 19 C-91.82255378 27.39407816 -91.82255378 27.39407816 -89.0625 35.125 C-83.59942309 41.38723205 -75.23018467 45.13466077 -68 49 C-67.32461182 49.38615479 -66.64922363 49.77230957 -65.95336914 50.17016602 C-53.20562491 57.16286821 -34.17884935 52.58055336 -20.671875 49.15625 C-11.5433849 46.19841522 -3.27271751 40.09497335 2 32 C4.95674764 26.00810612 6.01355651 19.62190252 5 13 C2.82660072 8.57270518 0.53503435 5.99099069 -4 4 C-6.5 3.33333333 -6.5 3.33333333 -9 4 C-12.37700155 6.76300127 -14.28399593 8.71143399 -15 13 C-15.53816399 21.31049396 -15.19396925 28.28124098 -12 36 C-16.81034374 31.85315195 -18.75349529 27.86145327 -19.2890625 21.64453125 C-19.47659527 13.55504946 -18.98594597 8.35008572 -13.4375 2.125 C-9.35152585 -1.02354368 -4.91449874 -0.82576406 0 0 Z " fill="#F9F9F9" transform="translate(349,185)"/>
<path d="M0 0 C0.61907755 9.35494966 -0.93528893 14.49307195 -6.125 22.125 C-14.2131689 31.25840919 -27.30355045 34.93453395 -39 36 C-60.60326144 37.10085585 -79.6976733 34.21887884 -99 24 C-98.01 19.38 -97.02 14.76 -96 10 C-111.50661451 10.08851276 -111.50661451 10.08851276 -126 15 C-127.66091934 15.68085913 -129.32640028 16.35093437 -131 17 C-128.89987409 12.13532243 -125.86601394 9.96118214 -121 8 C-116.92077116 7.41264037 -112.95323575 7.5517142 -108.84375 7.73046875 C-107.70087524 7.75973953 -106.55800049 7.78901031 -105.38049316 7.81916809 C-101.75246924 7.91764506 -98.12681188 8.05202395 -94.5 8.1875 C-92.0313195 8.26084157 -89.56256792 8.33183053 -87.09375 8.40039062 C-81.06141047 8.57303203 -75.03060572 8.77511258 -69 9 C-69 9.33 -69 9.66 -69 10 C-72.63 10 -76.26 10 -80 10 C-75.81586943 18.0893191 -70.52678995 21.79979693 -62.125 25.14453125 C-58.62086573 26.10378801 -55.56775259 26.30064934 -51.9375 26.3125 C-50.75027344 26.32925781 -49.56304687 26.34601563 -48.33984375 26.36328125 C-44.72188313 25.96974869 -42.84929798 25.23238576 -40 23 C-38.40368679 18.21106036 -38.16824244 13.82986662 -40.25 9.25 C-42.02025592 6.97395667 -43.94654242 5.01951613 -46 3 C-45.36199463 2.98541748 -44.72398926 2.97083496 -44.06665039 2.95581055 C-32.65988518 2.6659556 -21.44850085 2.3701935 -10.26782227 -0.0715332 C-6.51750554 -0.86909447 -3.70609092 -1.06293239 0 0 Z " fill="#F5F5F4" transform="translate(319,272)"/>
<path d="M0 0 C0.66 0 1.32 0 2 0 C-1.10919741 10.26035147 -11.25258118 17.30278421 -20.24560547 22.23046875 C-28.30528487 26.37722204 -36.25889815 29.99114647 -45.04443359 32.29345703 C-47.19552171 32.81667397 -47.19552171 32.81667397 -48 35 C-50.10362986 35.27588588 -52.21057596 35.53466914 -54.32421875 35.71875 C-56.9746094 35.99733121 -59.51231286 36.47975776 -62.125 37 C-71.95497008 38.71960312 -82.04565016 38.68876842 -92 39 C-91.21625 39.763125 -90.4325 40.52625 -89.625 41.3125 C-86.32969608 44.68626354 -85.07152224 46.11312426 -84.6875 50.875 C-84.79194655 54.66292835 -85.54059667 57.01358167 -88 60 C-93.27757735 63.45352988 -99.98046325 62.52711619 -106 62 C-113.52348082 60.12166808 -120.92648635 56.27252303 -125.4375 49.8125 C-127 47 -127 47 -127 45 C-122.05 44.505 -122.05 44.505 -117 44 C-117.51949219 43.48953125 -118.03898438 42.9790625 -118.57421875 42.453125 C-125.91363467 34.80168216 -129.4541029 26.18358841 -132 16 C-131.36835938 16.42410156 -130.73671875 16.84820312 -130.0859375 17.28515625 C-127.09168564 19.24824644 -124.05526956 21.13416185 -121 23 C-119.97898193 23.62567871 -118.95796387 24.25135742 -117.90600586 24.89599609 C-108.4716379 30.1586277 -100.85751418 30.950846 -90.1875 30.5625 C-88.67810066 30.533594 -87.16865707 30.50691611 -85.65917969 30.48242188 C-76.7542783 30.30036418 -67.91784578 29.79846544 -59.109375 28.4375 C-56.02872092 28.00404114 -53.10633707 27.92469486 -50 28 C-49.67 27.34 -49.34 26.68 -49 26 C-46.6640625 25.2890625 -46.6640625 25.2890625 -43.625 24.625 C-27.64011437 20.80293665 -12.38054069 14.18982358 -1 2 C-0.67 1.34 -0.34 0.68 0 0 Z " fill="#CEB272" transform="translate(366,237)"/>
<path d="M0 0 C2.94224653 2.94224653 3.73016799 6.64158934 5.00390625 10.515625 C5.28725327 11.36421082 5.57060028 12.21279663 5.86253357 13.08709717 C6.46130232 14.88506458 7.05709434 16.68402562 7.65014648 18.48388672 C8.55511847 21.22762035 9.47113136 23.96747867 10.38867188 26.70703125 C10.96941688 28.45550781 11.54951591 30.20419908 12.12890625 31.953125 C12.40182999 32.76896057 12.67475372 33.58479614 12.95594788 34.425354 C13.20968674 35.19925476 13.4634256 35.97315552 13.72485352 36.77050781 C13.9475441 37.44398254 14.17023468 38.11745728 14.39967346 38.81134033 C15.13535256 41.49346591 15.54277508 44.25665046 16 47 C5.77 47 -4.46 47 -15 47 C-12.75 36.875 -12.75 36.875 -11.57958984 33.48999023 C-11.31947113 32.72988144 -11.05935242 31.96977264 -10.79135132 31.18663025 C-10.51731476 30.4018782 -10.2432782 29.61712616 -9.9609375 28.80859375 C-9.67521881 27.97787857 -9.38950012 27.14716339 -9.09512329 26.29127502 C-8.19299062 23.6717446 -7.28412456 21.05461097 -6.375 18.4375 C-5.75736331 16.64794143 -5.14017167 14.85822919 -4.5234375 13.06835938 C-3.02075916 8.71044792 -1.51204285 4.35467069 0 0 Z " fill="#313131" transform="translate(176,195)"/>
<path d="M0 0 C5.44432812 2.25990979 7.72697583 6.02867318 10.08203125 11.2265625 C12.93708459 19.85246834 10.90713982 28.04056347 7 36 C-0.68181296 48.79564233 -14.24891432 56.06485237 -28.46020508 59.61450195 C-44.19222603 62.91818201 -44.19222603 62.91818201 -50.296875 60.921875 C-52.51233605 59.43042083 -54.23641909 57.99550388 -56 56 C-56.66 55.34 -57.32 54.68 -58 54 C-57.41210693 53.95512451 -56.82421387 53.91024902 -56.21850586 53.86401367 C-25.69035298 51.85999156 -25.69035298 51.85999156 -0.6875 35.6875 C4.12319969 29.71017286 5.61037543 22.87303525 5.3515625 15.296875 C4.63212683 10.59656195 2.22050345 7.93884881 -1.4375 5.125 C-4.36462776 3.83991952 -5.85372012 3.37074402 -9 4 C-12.37700155 6.76300127 -14.28399593 8.71143399 -15 13 C-15.53816399 21.31049396 -15.19396925 28.28124098 -12 36 C-16.81034374 31.85315195 -18.75349529 27.86145327 -19.2890625 21.64453125 C-19.47659527 13.55504946 -18.98594597 8.35008572 -13.4375 2.125 C-9.35152585 -1.02354368 -4.91449874 -0.82576406 0 0 Z " fill="#CCB070" transform="translate(349,185)"/>
<path d="M0 0 C4.03825066 -0.12406007 8.07575638 -0.21455045 12.11547852 -0.2746582 C13.48807102 -0.29972617 14.86053102 -0.33379082 16.23266602 -0.37719727 C18.21050696 -0.43817531 20.18934184 -0.46361009 22.16796875 -0.48828125 C23.35672607 -0.51446533 24.5454834 -0.54064941 25.77026367 -0.56762695 C29.94939826 0.16685698 31.33479628 1.77825035 34 5 C36.47361688 8.71042531 36.54607278 11.69862675 36 16 C34.77201907 18.82435614 33.88264053 20.42241956 31.3046875 22.109375 C24.67200306 24.67251407 16.10351037 23.79426584 9.5625 21.3125 C2.71841943 18.10960515 -2.29267566 14.67318381 -6 8 C-6 7.34 -6 6.68 -6 6 C-2.7 5.67 0.6 5.34 4 5 C2.68 3.35 1.36 1.7 0 0 Z " fill="#343434" transform="translate(245,276)"/>
<path d="M0 0 C0.33 1.98 0.66 3.96 1 6 C0.34773438 6.35191406 -0.30453125 6.70382812 -0.9765625 7.06640625 C-9.42194819 11.83717722 -14.93415869 16.79281422 -18.3046875 26.0546875 C-20.01774056 33.31110326 -20.46093781 41.75062299 -17.375 48.6875 C-15.16989117 52.21413747 -12.83371445 54.26397836 -9 56 C-4.29811097 56.81037944 -0.47761936 56.67431069 3.5625 54 C4.366875 53.34 5.17125 52.68 6 52 C5.9375 53.75 5.9375 53.75 5 56 C0.79959254 59.08601364 -2.55920609 60.74617423 -7.94921875 60.453125 C-12.93678301 59.3511108 -16.67574418 56.25267442 -20.3125 52.8125 C-25.16382363 44.72696061 -26.5504455 35.33317568 -24.30859375 26.17578125 C-20.6174856 15.10245681 -14.68207897 7.53248702 -5 1 C-2 0 -2 0 0 0 Z " fill="#BCA368" transform="translate(196,252)"/>
<path d="M0 0 C3.5985297 0.57833513 5.62270249 1.36221367 8.5 3.5625 C9.80148702 6.16547403 9.59720133 8.09665498 9.5625 11 C9.55347656 11.96808594 9.54445313 12.93617188 9.53515625 13.93359375 C9.52355469 14.80113281 9.51195312 15.66867187 9.5 16.5625 C9.5 17.5525 9.5 18.5425 9.5 19.5625 C8.84 19.3975 8.18 19.2325 7.5 19.0625 C4.88385298 18.6264755 3.09108676 18.66398346 0.5 18.875 C-3.20081452 18.92406383 -3.44780018 18.60817484 -6.5 15.9375 C-8.69828829 12.22788851 -9.37512282 10.76308953 -8.5 6.5625 C-6.00629406 2.48189029 -4.79703202 0.77095157 0 0 Z " fill="#EEEEEE" transform="translate(259.5,315.4375)"/>
<path d="M0 0 C9.05660377 -0.60377358 9.05660377 -0.60377358 13.125 2 C15.19618595 5.31389753 15.76001833 7.21775808 15.46875 11.0625 C14.58556388 14.71300264 13.120231 16.00305216 10 18 C6.55189604 18.40534963 3.49364097 18.2329094 0 18 C0 12.06 0 6.12 0 0 Z " fill="#EEEEEE" transform="translate(134,316)"/>
<path d="M0 0 C9.625 -0.25 9.625 -0.25 13 2 C13.1875 4.5 13.1875 4.5 13 7 C12.92403851 9.17825054 12.92403851 9.17825054 13.6875 11.9375 C14 15 14 15 12.875 16.6796875 C9.17531176 19.28488464 4.33481946 18.15299363 0 18 C0 12.06 0 6.12 0 0 Z " fill="#EBEBEB" transform="translate(363,316)"/>
<path d="M0 0 C9.625 -0.25 9.625 -0.25 13 2 C13.1875 4.5 13.1875 4.5 13 7 C12.92403851 9.17825054 12.92403851 9.17825054 13.6875 11.9375 C14 15 14 15 12.875 16.6796875 C9.17531176 19.28488464 4.33481946 18.15299363 0 18 C0 12.06 0 6.12 0 0 Z " fill="#EBEBEB" transform="translate(117,316)"/>
<path d="M0 0 C9 0 9 0 11.5625 1.5 C12.036875 1.995 12.51125 2.49 13 3 C12.05581395 7.85581395 12.05581395 7.85581395 11.25 9.9375 C10.859474 13.15933947 12.44136385 15.25680038 14 18 C11.6875 17.875 11.6875 17.875 9 17 C7.3125 14 7.3125 14 6 11 C5.34 10.67 4.68 10.34 4 10 C4 12.64 4 15.28 4 18 C2.68 18 1.36 18 0 18 C0 12.06 0 6.12 0 0 Z " fill="#ECECEC" transform="translate(184,316)"/>
<path d="M0 0 C0.94746094 0.63615234 0.94746094 0.63615234 1.9140625 1.28515625 C9.34472653 6.1568452 17.00722733 10.16113546 25 14 C25 14.66 25 15.32 25 16 C18.73 16 12.46 16 6 16 C3.55307371 10.69832638 1.4438901 5.65523621 0 0 Z " fill="#3A3937" transform="translate(234,253)"/>
<path d="M0 0 C0.99 0 1.98 0 3 0 C5.31 5.61 7.62 11.22 10 17 C8.68 17.33 7.36 17.66 6 18 C5.67 16.68 5.34 15.36 5 14 C2.69 14.33 0.38 14.66 -2 15 C-2.33 15.99 -2.66 16.98 -3 18 C-4.32 18 -5.64 18 -7 18 C-6.34422814 13.97594538 -5.08843632 10.49944851 -3.5 6.75 C-3.0565625 5.69296875 -2.613125 4.6359375 -2.15625 3.546875 C-1 1 -1 1 0 0 Z " fill="#DFDFDF" transform="translate(206,316)"/>
<path d="M0 0 C1.796875 0.03515625 1.796875 0.03515625 4 1 C5.29029101 3.50659744 6.29819657 5.80790021 7.25 8.4375 C7.518125 9.13166016 7.78625 9.82582031 8.0625 10.54101562 C10 15.64672353 10 15.64672353 10 18 C8.68 18 7.36 18 6 18 C5.67 17.01 5.34 16.02 5 15 C2.69 15 0.38 15 -2 15 C-2.33 15.99 -2.66 16.98 -3 18 C-4.32 18 -5.64 18 -7 18 C-5.06375702 11.79522136 -2.74390859 5.89174281 0 0 Z " fill="#E0E0E0" transform="translate(343,316)"/>
<path d="M0 0 C1.796875 0.03515625 1.796875 0.03515625 4 1 C5.29029101 3.50659744 6.29819657 5.80790021 7.25 8.4375 C7.518125 9.13166016 7.78625 9.82582031 8.0625 10.54101562 C10 15.64672353 10 15.64672353 10 18 C8.68 18 7.36 18 6 18 C5.67 17.01 5.34 16.02 5 15 C2.69 15 0.38 15 -2 15 C-2.33 15.99 -2.66 16.98 -3 18 C-4.32 18 -5.64 18 -7 18 C-5.06375702 11.79522136 -2.74390859 5.89174281 0 0 Z " fill="#E0E0E0" transform="translate(240,316)"/>
<path d="M0 0 C1.796875 0.03515625 1.796875 0.03515625 4 1 C5.29029101 3.50659744 6.29819657 5.80790021 7.25 8.4375 C7.518125 9.13166016 7.78625 9.82582031 8.0625 10.54101562 C10 15.64672353 10 15.64672353 10 18 C8.68 18 7.36 18 6 18 C5.67 17.01 5.34 16.02 5 15 C2.69 15 0.38 15 -2 15 C-2.33 15.99 -2.66 16.98 -3 18 C-4.32 18 -5.64 18 -7 18 C-5.06375702 11.79522136 -2.74390859 5.89174281 0 0 Z " fill="#E0E0E0" transform="translate(105,316)"/>
<path d="M0 0 C4.95 0 9.9 0 15 0 C13.93795631 4.24817476 12.68632824 5.93395323 9.9375 9.25 C9.20402344 10.14203125 8.47054687 11.0340625 7.71484375 11.953125 C7.14894531 12.62859375 6.58304688 13.3040625 6 14 C8.97 14.33 11.94 14.66 15 15 C15 15.99 15 16.98 15 18 C10.05 18 5.1 18 0 18 C1.02033636 12.89831818 1.67698878 11.78796432 5.0625 8.1875 C5.79597656 7.39730469 6.52945313 6.60710937 7.28515625 5.79296875 C7.85105469 5.20128906 8.41695312 4.60960937 9 4 C6.03 3.67 3.06 3.34 0 3 C0 2.01 0 1.02 0 0 Z " fill="#F6F6F6" transform="translate(217,316)"/>
<path d="M0 0 C0.99 0 1.98 0 3 0 C3.33 4.29 3.66 8.58 4 13 C5.65 13.33 7.3 13.66 9 14 C9.33 9.38 9.66 4.76 10 0 C11.32 0 12.64 0 14 0 C14.10823773 2.24893954 14.18569645 4.49937575 14.25 6.75 C14.29640625 8.00296875 14.3428125 9.2559375 14.390625 10.546875 C14 14 14 14 12.20703125 16.42578125 C9.02954297 18.69220209 6.8044211 18.48419905 3 18 C1.296875 16.953125 1.296875 16.953125 0 15 C-0.2172101 12.35003674 -0.28351554 9.94923442 -0.1875 7.3125 C-0.17396484 6.61060547 -0.16042969 5.90871094 -0.14648438 5.18554688 C-0.11120182 3.45670171 -0.05739583 1.72825235 0 0 Z " fill="#EFEFEF" transform="translate(380,316)"/>
<path d="M0 0 C0.99 0 1.98 0 3 0 C3.33 4.29 3.66 8.58 4 13 C5.65 13.33 7.3 13.66 9 14 C9.33 9.38 9.66 4.76 10 0 C11.32 0 12.64 0 14 0 C14.10823773 2.24893954 14.18569645 4.49937575 14.25 6.75 C14.29640625 8.00296875 14.3428125 9.2559375 14.390625 10.546875 C14 14 14 14 12.20703125 16.42578125 C9.02954297 18.69220209 6.8044211 18.48419905 3 18 C1.296875 16.953125 1.296875 16.953125 0 15 C-0.2172101 12.35003674 -0.28351554 9.94923442 -0.1875 7.3125 C-0.17396484 6.61060547 -0.16042969 5.90871094 -0.14648438 5.18554688 C-0.11120182 3.45670171 -0.05739583 1.72825235 0 0 Z " fill="#EFEFEF" transform="translate(320,316)"/>
<path d="M0 0 C1.32 0 2.64 0 4 0 C4.33 4.62 4.66 9.24 5 14 C6.65 13.67 8.3 13.34 10 13 C10.33 8.71 10.66 4.42 11 0 C11.99 0 12.98 0 14 0 C14.1079859 2.43868168 14.18726589 4.87259133 14.25 7.3125 C14.30027344 8.34793945 14.30027344 8.34793945 14.3515625 9.40429688 C14.45039367 14.51881018 14.45039367 14.51881018 12.171875 16.953125 C9.19789956 18.38662395 7.26192404 18.47569726 4 18 C1.828125 16.42578125 1.828125 16.42578125 0 14 C-0.390625 10.546875 -0.390625 10.546875 -0.25 6.75 C-0.21390625 5.48671875 -0.1778125 4.2234375 -0.140625 2.921875 C-0.09421875 1.95765625 -0.0478125 0.9934375 0 0 Z " fill="#EFEFEF" transform="translate(152,316)"/>
<path d="M0 0 C0.99 0 1.98 0 3 0 C3 2.64 3 5.28 3 8 C5.64 8 8.28 8 11 8 C11 5.36 11 2.72 11 0 C11.99 0 12.98 0 14 0 C14 5.94 14 11.88 14 18 C13.01 18 12.02 18 11 18 C11 15.69 11 13.38 11 11 C8.36 11 5.72 11 3 11 C3 13.31 3 15.62 3 18 C2.01 18 1.02 18 0 18 C0 12.06 0 6.12 0 0 Z " fill="#FDFDFD" transform="translate(301,316)"/>
<path d="M0 0 C0.94875 0.04125 1.8975 0.0825 2.875 0.125 C3.535 1.445 4.195 2.765 4.875 4.125 C2.565 3.795 0.255 3.465 -2.125 3.125 C-1.40860801 6.41343538 -1.40860801 6.41343538 1.875 7.75 C2.865 8.20375 3.855 8.6575 4.875 9.125 C5.875 10.125 5.875 10.125 6.125 13.0625 C6.0425 14.073125 5.96 15.08375 5.875 16.125 C2.17084707 18.59443529 0.25355495 18.59413089 -4.125 18.125 C-6.0625 16.25 -6.0625 16.25 -7.125 14.125 C-7.125 13.465 -7.125 12.805 -7.125 12.125 C-5.805 12.125 -4.485 12.125 -3.125 12.125 C-2.795 12.785 -2.465 13.445 -2.125 14.125 C-0.805 14.125 0.515 14.125 1.875 14.125 C1.875 13.465 1.875 12.805 1.875 12.125 C0.08534453 10.76222914 0.08534453 10.76222914 -2.125 9.5 C-2.8675 9.05398438 -3.61 8.60796875 -4.375 8.1484375 C-4.9525 7.81070312 -5.53 7.47296875 -6.125 7.125 C-5.03177966 0.20127119 -5.03177966 0.20127119 0 0 Z " fill="#EEEEEE" transform="translate(291.125,315.875)"/>
<path d="M0 0 C2.9375 0.875 2.9375 0.875 4.9375 3.875 C4.5625 6.5625 4.5625 6.5625 3.9375 8.875 C2.6175 8.875 1.2975 8.875 -0.0625 8.875 C0.2675 9.865 0.5975 10.855 0.9375 11.875 C-1.4375 12.0625 -1.4375 12.0625 -4.0625 11.875 C-6.37532587 8.40576119 -6.48728586 6.95294425 -6.0625 2.875 C-4.31924047 -0.1272803 -3.48919154 -0.14241598 0 0 Z " fill="#414141" transform="translate(261.0625,319.125)"/>
<path d="M0 0 C1.32 0 2.64 0 4 0 C4 4.95 4 9.9 4 15 C6.64 15 9.28 15 12 15 C12 15.99 12 16.98 12 18 C8.04 18 4.08 18 0 18 C0 12.06 0 6.12 0 0 Z " fill="#E8E8E8" transform="translate(170,316)"/>
<path d="M0 0 C5 0 5 0 6.875 1.0625 C8.69848531 4.20294693 7.8658284 6.5985313 7 10 C4 12 4 12 0 12 C0 8.04 0 4.08 0 0 Z " fill="#393939" transform="translate(138,319)"/>
<path d="M0 0 C1.50509114 0.07340722 3.01030245 0.14439256 4.515625 0.21289062 C8.17889091 0.38482187 11.83944064 0.58959763 15.5 0.8125 C15.5 1.1425 15.5 1.4725 15.5 1.8125 C14.324375 1.9671875 14.324375 1.9671875 13.125 2.125 C10.16954819 2.58845022 10.16954819 2.58845022 8.5 5.8125 C8.5 4.4925 8.5 3.1725 8.5 1.8125 C-7.00650654 1.89281282 -7.00650654 1.89281282 -21.5 6.8125 C-23.16091934 7.49335913 -24.82640028 8.16343437 -26.5 8.8125 C-24.7610801 4.87308854 -22.93528471 2.95320205 -19.24609375 0.77587891 C-13.14447948 -1.36467674 -6.35982821 -0.39295251 0 0 Z " fill="#BCAE8F" transform="translate(214.5,280.1875)"/>
<path d="M0 0 C1.32 0 2.64 0 4 0 C4 5.94 4 11.88 4 18 C2.68 18 1.36 18 0 18 C0 12.06 0 6.12 0 0 Z " fill="#E3E3E3" transform="translate(355,316)"/>
<path d="M0 0 C2.625 0.375 2.625 0.375 5 1 C5.042721 2.66611905 5.04063832 4.33382885 5 6 C4 7 4 7 1.4375 7.0625 C0.2309375 7.0315625 0.2309375 7.0315625 -1 7 C-1.625 4.625 -1.625 4.625 -2 2 C-1.34 1.34 -0.68 0.68 0 0 Z " fill="#BCBCBC" transform="translate(158,344)"/>
<path d="M0 0 C1.67542976 0.28604898 3.34385343 0.61781233 5 1 C5.625 2.875 5.625 2.875 6 5 C5.34 5.66 4.68 6.32 4 7 C1.375 6.625 1.375 6.625 -1 6 C-1.042721 4.33388095 -1.04063832 2.66617115 -1 1 C-0.67 0.67 -0.34 0.34 0 0 Z " fill="#858585" transform="translate(310,344)"/>
<path d="M0 0 C0.33 0 0.66 0 1 0 C1.03738281 0.76183594 1.07476562 1.52367187 1.11328125 2.30859375 C1.53848412 8.98678001 2.50385324 14.78318166 5 21 C1.28865795 17.8005672 -0.42930118 14.6294281 -2 10 C-1.75 7.9375 -1.75 7.9375 -1 6 C-0.65421232 4.00211562 -0.31856451 2.00240549 0 0 Z " fill="#B49C66" transform="translate(332,200)"/>
<path d="M0 0 C2.475 0.495 2.475 0.495 5 1 C5.625 2.875 5.625 2.875 6 5 C5.34 5.66 4.68 6.32 4 7 C2.68 7 1.36 7 0 7 C0 4.69 0 2.38 0 0 Z " fill="#919191" transform="translate(251,344)"/>
<path d="M0 0 C0.66 0 1.32 0 2 0 C0.36228672 5.40445384 -3.19845018 10.4596461 -8.1953125 13.20703125 C-8.79085938 13.46871094 -9.38640625 13.73039063 -10 14 C-8.43988817 10.5222507 -6.36827674 7.72775973 -4 4.75 C-3.29875 3.85796875 -2.5975 2.9659375 -1.875 2.046875 C-1.25625 1.37140625 -0.6375 0.6959375 0 0 Z " fill="#C2A86B" transform="translate(366,237)"/>
<path d="M0 0 C0.99 0.99 1.98 1.98 3 3 C3.33 2.34 3.66 1.68 4 1 C4.66 1 5.32 1 6 1 C6 1.66 6 2.32 6 3 C6.66 3 7.32 3 8 3 C8 2.01 8 1.02 8 0 C8.66 0 9.32 0 10 0 C9.34 2.31 8.68 4.62 8 7 C7.34 7 6.68 7 6 7 C6 6.01 6 5.02 6 4 C5.34 4 4.68 4 4 4 C3.67 4.99 3.34 5.98 3 7 C2.34 6.67 1.68 6.34 1 6 C0.375 2.9375 0.375 2.9375 0 0 Z " fill="#B6B6B6" transform="translate(192,344)"/>
<path d="M0 0 C1.32 0 2.64 0 4 0 C4.33 0.66 4.66 1.32 5 2 C5.99 2.66 6.98 3.32 8 4 C7.67 4.66 7.34 5.32 7 6 C4.625 5.8125 4.625 5.8125 2 5 C0.6875 2.4375 0.6875 2.4375 0 0 Z " fill="#E1E1E1" transform="translate(284,328)"/>
<path d="M0 0 C1.65 0 3.3 0 5 0 C5.5625 1.9375 5.5625 1.9375 6 4 C5 5 5 5 2.4375 5.0625 C1.2309375 5.0315625 1.2309375 5.0315625 0 5 C0 3.35 0 1.7 0 0 Z " fill="#373737" transform="translate(367,326)"/>
<path d="M0 0 C1.65 0 3.3 0 5 0 C5.5625 1.9375 5.5625 1.9375 6 4 C5 5 5 5 2.4375 5.0625 C1.2309375 5.0315625 1.2309375 5.0315625 0 5 C0 3.35 0 1.7 0 0 Z " fill="#383838" transform="translate(121,326)"/>
<path d="M0 0 C2.475 0.495 2.475 0.495 5 1 C5 2.98 5 4.96 5 7 C4.34 7 3.68 7 3 7 C2.67 6.34 2.34 5.68 2 5 C1.34 5.66 0.68 6.32 0 7 C0 4.69 0 2.38 0 0 Z " fill="#B0B0B0" transform="translate(345,344)"/>
<path d="M0 0 C2.475 0.495 2.475 0.495 5 1 C5 2.98 5 4.96 5 7 C4.34 7 3.68 7 3 7 C2.67 6.34 2.34 5.68 2 5 C1.34 5.66 0.68 6.32 0 7 C0 4.69 0 2.38 0 0 Z " fill="#B0B0B0" transform="translate(220,344)"/>
<path d="M0 0 C2 1 2 1 3.125 4.0625 C3.41375 5.031875 3.7025 6.00125 4 7 C1.69 7 -0.62 7 -3 7 C-2.01 4.69 -1.02 2.38 0 0 Z " fill="#B0B0B0" transform="translate(210,344)"/>
<path d="M0 0 C0.33 0.99 0.66 1.98 1 3 C-2.79692186 5.82561627 -5.18569279 7.56638908 -10 7 C-8.39161707 3.78323414 -5.21406721 3.35329146 -2 2 C-1.34 1.34 -0.68 0.68 0 0 Z " fill="#C6AB6D" transform="translate(201,304)"/>
<path d="M0 0 C1.65 0 3.3 0 5 0 C4.01 0.33 3.02 0.66 2 1 C2 1.66 2 2.32 2 3 C2.99 3.33 3.98 3.66 5 4 C4.01 4 3.02 4 2 4 C2 4.66 2 5.32 2 6 C2.99 6.33 3.98 6.66 5 7 C3.35 7 1.7 7 0 7 C0 4.69 0 2.38 0 0 Z " fill="#B8B8B8" transform="translate(263,344)"/>
<path d="M0 0 C1.65 0 3.3 0 5 0 C4.01 0.33 3.02 0.66 2 1 C2 1.66 2 2.32 2 3 C2.99 3.33 3.98 3.66 5 4 C4.01 4 3.02 4 2 4 C2 4.66 2 5.32 2 6 C2.99 6.33 3.98 6.66 5 7 C3.35 7 1.7 7 0 7 C0 4.69 0 2.38 0 0 Z " fill="#B8B8B8" transform="translate(231,344)"/>
<path d="M0 0 C1.32 0 2.64 0 4 0 C4 4 4 4 3 7 C1.68 7 0.36 7 -1 7 C-1 6.34 -1 5.68 -1 5 C-0.34 4.67 0.32 4.34 1 4 C0.67 2.68 0.34 1.36 0 0 Z " fill="#A2A2A2" transform="translate(146,344)"/>
<path d="M0 0 C1.65 0 3.3 0 5 0 C5 1.32 5 2.64 5 4 C3.35 4 1.7 4 0 4 C0 2.68 0 1.36 0 0 Z " fill="#434343" transform="translate(367,319)"/>
<path d="M0 0 C1.65 0 3.3 0 5 0 C5 1.32 5 2.64 5 4 C3.35 4 1.7 4 0 4 C0 2.68 0 1.36 0 0 Z " fill="#434343" transform="translate(121,319)"/>
<path d="M0 0 C2.475 0.495 2.475 0.495 5 1 C5 1.99 5 2.98 5 4 C3.35 4 1.7 4 0 4 C0 2.68 0 1.36 0 0 Z " fill="#3C3C3C" transform="translate(188,319)"/>
<path d="M0 0 C1.32 0.33 2.64 0.66 4 1 C3.67 2.32 3.34 3.64 3 5 C2.01 5 1.02 5 0 5 C0 3.35 0 1.7 0 0 Z " fill="#3A3A3A" transform="translate(158,345)"/>
</svg>
