<?xml version="1.0" standalone="no"?>
<!DOCTYPE svg PUBLIC "-//W3C//DTD SVG 20010904//EN"
 "http://www.w3.org/TR/2001/REC-SVG-20010904/DTD/svg10.dtd">
<svg version="1.0" xmlns="http://www.w3.org/2000/svg"
 width="300.000000pt" height="225.000000pt" viewBox="0 0 300.000000 225.000000"
 preserveAspectRatio="xMidYMid meet">
<metadata>
Created by potrace 1.10, written by Peter Selinger 2001-2011
</metadata>
<g transform="translate(0.000000,225.000000) scale(0.100000,-0.100000)"
fill="#000000" stroke="none">
<path d="M1375 2243 c11 -3 41 -11 68 -18 26 -8 47 -10 47 -6 0 10 -80 31
-112 30 -20 -1 -21 -2 -3 -6z"/>
<path d="M1510 2211 c8 -5 40 -16 70 -24 30 -9 86 -25 124 -36 38 -11 72 -18
75 -16 8 8 0 11 -124 44 -161 44 -163 44 -145 32z"/>
<path d="M2848 2198 c8 -8 8 -15 2 -24 -7 -8 -6 -13 4 -17 9 -4 16 3 18 18 3
15 0 26 -9 29 -23 9 -28 7 -15 -6z"/>
<path d="M2358 2177 c-87 -20 -88 -20 -94 -54 -4 -19 -2 -39 4 -45 6 -6 8 -1
5 16 -7 37 11 54 65 62 26 4 64 13 86 20 21 8 40 14 42 14 2 0 4 -16 4 -35 0
-30 -4 -36 -27 -41 -16 -3 -44 -10 -63 -14 -19 -4 -48 -11 -64 -14 -15 -4 -26
-9 -24 -12 6 -5 176 34 199 47 14 7 15 14 5 44 -13 41 -15 41 -138 12z"/>
<path d="M2711 2157 c2 -2 29 -18 59 -35 40 -22 60 -28 70 -21 13 8 13 10 0
19 -8 5 -19 10 -25 10 -5 0 -3 -5 5 -10 35 -23 -16 -9 -55 15 -32 20 -71 36
-54 22z"/>
<path d="M1790 2132 c0 -5 18 -14 41 -21 23 -7 47 -15 55 -18 8 -3 14 0 14 6
0 5 -23 17 -52 26 -61 18 -58 17 -58 7z"/>
<path d="M1947 2000 c3 -63 8 -118 12 -122 9 -11 0 205 -10 222 -5 9 -6 -33
-2 -100z"/>
<path d="M2773 1835 c0 -33 2 -45 4 -27 2 18 2 45 0 60 -2 15 -4 0 -4 -33z"/>
<path d="M1964 1740 c18 -304 31 -459 37 -448 4 6 6 16 4 22 -2 6 -6 65 -10
131 -4 66 -8 122 -10 125 -1 3 -6 64 -10 135 -3 72 -9 132 -12 135 -3 3 -3
-42 1 -100z"/>
<path d="M2781 1683 c-1 -46 3 -83 8 -83 4 0 6 33 4 73 -6 102 -11 106 -12 10z"/>
<path d="M2897 1721 c-16 -28 -16 -32 0 -65 15 -33 21 -36 58 -36 l41 0 -1 64
c0 35 -3 62 -7 59 -5 -2 -8 -12 -8 -21 -1 -16 -2 -16 -13 -1 -24 31 -51 31
-70 0z m43 -2 c0 -5 4 -8 9 -4 15 9 23 -13 12 -32 -6 -10 -11 -12 -11 -5 0 6
-11 12 -25 12 -28 0 -30 5 -12 25 14 17 27 19 27 4z"/>
<path d="M2830 1569 c-25 -4 -67 -8 -94 -8 -67 -1 -51 -12 71 -50 92 -28 107
-30 148 -20 25 6 45 16 45 21 0 6 -13 6 -32 1 -49 -12 -104 -7 -130 11 -12 9
-20 17 -18 17 3 1 19 3 35 5 17 2 44 6 60 8 17 3 42 7 58 8 15 1 27 6 27 10 0
10 -110 8 -170 -3z"/>
<path d="M2504 1535 c-12 -8 -24 -12 -28 -10 -3 3 -4 2 -1 -2 8 -10 65 -14 65
-4 0 10 77 8 87 -3 13 -13 -9 -19 -77 -20 -58 -1 -74 2 -85 17 -11 16 -20 17
-80 7 -37 -6 -81 -17 -98 -24 -29 -11 -17 -13 125 -19 86 -3 221 -3 300 0 141
7 142 7 88 19 -30 6 -64 15 -74 19 -14 6 -17 5 -12 -3 4 -7 1 -12 -8 -12 -18
0 -32 20 -14 20 7 1 2 7 -12 15 -34 19 -149 20 -176 0z"/>
<path d="M2210 1440 c-8 -5 -24 -7 -35 -5 -11 3 -15 2 -8 -1 16 -7 -23 -69
-52 -83 -14 -6 -15 -10 -5 -10 8 0 41 24 73 54 53 50 64 69 27 45z"/>
<path d="M2820 1429 c-77 -25 -103 -42 -33 -23 86 23 138 42 118 42 -11 1 -49
-8 -85 -19z"/>
<path d="M2709 1436 c-2 -2 -42 -7 -89 -11 -95 -7 -132 -21 -136 -49 -2 -14 0
-16 9 -7 6 6 22 11 35 11 24 0 159 35 197 50 15 6 16 9 4 9 -9 1 -18 -1 -20
-3z"/>
<path d="M1803 1375 c0 -33 2 -45 4 -27 2 18 2 45 0 60 -2 15 -4 0 -4 -33z"/>
<path d="M2482 1327 c-34 -11 -60 -22 -58 -24 4 -4 114 26 125 34 16 12 -14 7
-67 -10z"/>
<path d="M2014 1238 c-39 -45 -72 -94 -103 -155 -38 -76 -39 -84 -3 -51 15 14
42 29 59 33 18 3 35 10 38 14 6 10 -59 6 -77 -5 -7 -4 -5 2 5 13 9 11 14 23
10 28 -5 4 -3 5 3 2 6 -3 26 7 45 24 l34 30 -33 -16 -34 -16 42 60 c42 64 47
77 14 39z"/>
<path d="M1162 1192 c4 -15 1 -25 -10 -31 -9 -5 -14 -12 -10 -16 8 -9 48 17
48 31 0 6 -8 18 -17 25 -15 13 -16 12 -11 -9z"/>
<path d="M1200 1171 c0 -4 10 -7 23 -7 16 1 23 -5 25 -21 4 -25 22 -32 22 -9
0 10 7 13 20 11 13 -2 18 0 14 7 -11 17 49 0 134 -39 110 -49 133 -62 167 -90
29 -24 29 -24 5 -18 -23 6 -24 6 -10 -9 16 -16 65 -12 54 5 -3 5 1 9 10 9 8 0
16 6 19 13 2 6 8 9 12 5 4 -4 2 -14 -5 -23 -10 -13 -9 -15 10 -15 13 0 29 -8
36 -17 12 -17 13 -17 14 -1 0 33 -20 70 -35 64 -8 -3 -17 -1 -20 3 -3 5 -20 9
-39 9 -19 0 -54 9 -78 21 -115 55 -275 108 -325 109 -29 1 -53 -3 -53 -7z"/>
<path d="M947 1140 c-36 -31 -82 -123 -73 -145 3 -8 0 -15 -7 -18 -15 -5 -14
-224 2 -298 13 -61 49 -124 87 -152 26 -20 128 -40 156 -31 15 4 15 8 5 25
-10 16 -20 18 -56 14 -102 -12 -156 59 -170 224 -21 239 42 401 158 401 20 0
36 -37 19 -42 -6 -2 -2 -10 8 -18 13 -11 16 -11 10 -2 -5 9 0 25 13 43 l22 29
-70 0 c-64 0 -73 -3 -104 -30z"/>
<path d="M1820 1112 l5 -57 3 49 c2 27 0 52 -5 57 -4 4 -6 -18 -3 -49z"/>
<path d="M2862 1158 c-8 -10 -3 -14 20 -15 17 -1 38 2 47 7 11 7 6 8 -18 3
-25 -4 -32 -3 -27 5 10 16 -9 15 -22 0z"/>
<path d="M638 1138 c-21 -12 -38 -24 -38 -28 0 -3 21 -3 48 -1 43 4 45 5 17
12 -25 6 -22 7 21 8 27 0 54 5 60 10 5 5 20 11 34 14 14 2 -4 5 -40 5 -50 1
-74 -3 -102 -20z"/>
<path d="M820 1150 c-11 -7 -11 -10 -2 -10 7 0 11 -4 8 -9 -4 -5 4 -7 16 -4
l23 6 -22 -25 -23 -24 25 0 c14 0 25 4 25 8 0 4 -5 8 -12 8 -6 0 -3 10 8 22
10 12 14 18 7 15 -6 -4 -14 -3 -18 2 -3 5 12 12 32 14 37 4 37 4 -7 5 -25 1
-52 -3 -60 -8z"/>
<path d="M555 1068 c-16 -15 -24 -28 -19 -28 6 0 15 5 22 12 7 7 12 8 12 2 0
-11 49 -12 68 -1 7 5 12 3 12 -3 0 -6 5 -8 11 -5 16 11 3 18 -36 20 -39 3 -60
14 -29 16 40 2 64 6 71 12 4 4 -14 7 -38 6 -35 -2 -52 -9 -74 -31z"/>
<path d="M1047 1094 c-7 -8 -10 -104 -3 -104 2 0 12 -3 21 -6 14 -6 16 0 11
40 -6 52 -18 80 -29 70z"/>
<path d="M2790 1069 c-58 -13 -69 -17 -35 -14 55 6 172 33 140 33 -11 0 -58
-9 -105 -19z"/>
<path d="M1421 1041 c-30 -41 -26 -49 8 -17 16 15 31 24 34 19 7 -12 2 -54
-13 -113 -12 -43 -15 -74 -10 -95 1 -5 2 -22 1 -37 -1 -29 -25 -39 -34 -15 -3
6 -6 2 -6 -10 -1 -15 9 -27 29 -38 36 -19 43 -19 33 0 -5 7 -5 61 -2 118 6
101 23 175 44 189 13 10 4 16 -32 22 -27 5 -35 1 -52 -23z"/>
<path d="M534 1029 c-31 -11 -38 -26 -17 -38 12 -6 25 -6 37 1 9 5 20 7 23 5
3 -3 16 -2 29 3 15 6 24 6 24 0 0 -6 -5 -10 -12 -10 -6 0 -9 -2 -6 -5 9 -9 38
7 32 17 -4 6 -1 14 6 18 7 4 -9 5 -35 3 -27 -4 -50 -2 -54 4 -3 6 -15 7 -27 2z"/>
<path d="M717 1026 c5 -14 3 -17 -7 -11 -9 5 -11 4 -6 -3 4 -7 14 -12 23 -12
9 0 13 -3 9 -7 -4 -4 -13 -8 -19 -8 -7 0 -13 -4 -14 -9 -1 -5 -7 -13 -15 -18
-10 -7 -8 -8 7 -7 37 3 54 -1 58 -13 2 -7 3 -4 1 8 -4 23 38 50 58 38 7 -4 8
-2 4 4 -8 14 -46 16 -46 3 0 -5 -7 -11 -15 -15 -20 -7 -19 9 3 30 16 17 16 18
-2 11 -12 -5 -23 -1 -32 10 -13 17 -14 17 -7 -1z"/>
<path d="M2475 1008 c-49 -11 -97 -23 -105 -26 -8 -3 -20 -4 -27 -3 -6 1 -14
-2 -16 -6 -3 -5 8 -8 24 -8 16 -1 29 2 29 5 0 4 10 6 23 5 12 -1 27 1 32 5 6
5 24 11 40 14 60 11 125 28 125 32 0 7 -31 2 -125 -18z"/>
<path d="M1142 1007 c-20 -27 -21 -46 -2 -44 24 2 45 43 25 51 -7 2 -18 -1
-23 -7z"/>
<path d="M1310 989 c0 -6 8 -24 17 -40 14 -24 15 -33 5 -47 -31 -43 -36 -62
-22 -87 17 -33 30 -23 28 23 -1 20 3 58 9 84 6 26 7 45 2 43 -4 -3 -10 4 -14
15 -7 21 -25 28 -25 9z"/>
<path d="M1538 927 c3 -40 -1 -66 -16 -101 -24 -54 -13 -61 18 -12 17 29 20
44 14 88 -9 73 -22 93 -16 25z"/>
<path d="M495 952 c-8 -21 -6 -24 12 -14 9 6 29 6 45 2 15 -5 30 -5 33 -1 2 5
17 6 31 3 19 -3 25 -1 20 7 -4 6 -12 9 -17 6 -5 -4 -9 -3 -9 2 0 15 -109 10
-115 -5z"/>
<path d="M1074 911 c-9 -32 -8 -38 3 -34 11 4 20 73 10 73 -2 0 -8 -18 -13
-39z"/>
<path d="M1106 924 c-13 -33 -6 -49 19 -49 17 0 24 4 20 13 -3 8 -5 16 -5 18
0 2 -8 4 -17 4 -14 1 -12 4 7 15 24 14 24 14 4 15 -12 0 -25 -7 -28 -16z"/>
<path d="M545 918 c-4 -10 -13 -15 -23 -11 -13 4 -14 3 -4 -5 11 -7 10 -10 -3
-16 -14 -5 -15 -9 -5 -21 15 -18 85 -21 74 -4 -3 6 -19 9 -35 5 -39 -7 -45 9
-10 26 22 10 27 18 21 28 -8 12 -10 12 -15 -2z"/>
<path d="M1032 847 c3 -17 0 -28 -9 -31 -10 -4 -13 -22 -11 -67 1 -34 4 -55 7
-48 2 7 12 -3 23 -22 15 -26 18 -28 13 -9 -16 63 -17 73 -6 94 16 29 10 98 -8
104 -10 3 -13 -2 -9 -21z"/>
<path d="M700 850 c-17 -11 -21 -49 -6 -68 7 -10 5 -16 -5 -23 -10 -6 -11 -9
-1 -9 19 0 27 31 11 42 -11 7 -9 9 7 5 13 -3 21 1 21 10 0 9 -7 13 -17 10 -10
-2 -17 2 -17 10 0 8 8 12 21 8 12 -3 15 -2 8 1 -6 3 -10 10 -6 15 7 11 3 11
-16 -1z"/>
<path d="M496 825 c-7 -19 9 -36 27 -29 9 3 17 1 17 -5 0 -6 18 -3 44 9 24 10
48 15 52 12 4 -4 4 -2 0 5 -4 7 -14 9 -23 6 -25 -10 -88 -7 -86 4 3 14 -25 12
-31 -2z"/>
<path d="M2354 806 c-12 -9 -24 -13 -27 -10 -3 3 -15 0 -27 -6 -17 -9 -19 -14
-10 -23 10 -9 14 -9 17 1 3 6 17 12 31 12 41 0 73 11 69 24 -6 17 -30 18 -53
2z"/>
<path d="M2430 810 c-12 -8 -9 -10 13 -10 15 0 30 0 34 -1 4 0 9 4 11 10 5 14
-38 14 -58 1z"/>
<path d="M1767 752 c-9 -32 -17 -69 -17 -83 0 -42 -52 -134 -77 -137 -13 -2
-23 1 -23 6 0 6 -19 14 -42 18 -41 7 -65 7 -130 -1 -15 -2 -30 1 -33 6 -4 5
-11 9 -16 9 -6 0 -8 -3 -6 -7 3 -5 -8 -8 -25 -9 -38 -2 -80 -24 -74 -41 3 -7
-1 -13 -10 -13 -8 0 -13 -4 -10 -9 3 -5 -1 -11 -9 -15 -18 -6 -19 -1 -5 25 11
20 -3 28 -16 8 -4 -6 -20 -8 -39 -5 -21 4 -36 2 -41 -5 -4 -7 -3 -9 3 -6 6 4
13 1 16 -7 3 -8 14 -16 24 -19 10 -2 5 -3 -12 0 -16 2 -37 4 -46 4 -13 0 -16
8 -14 35 3 24 -1 34 -11 34 -16 0 -18 23 -4 51 8 14 7 19 -3 19 -16 0 -16 45
1 62 6 6 12 26 12 44 0 26 -5 33 -25 36 -24 5 -25 3 -25 -38 0 -23 -3 -51 -6
-61 -5 -15 -4 -15 5 -3 6 8 11 11 12 5 0 -5 2 -37 4 -70 3 -38 10 -63 19 -69
12 -8 12 -13 -1 -32 -24 -38 -8 -47 69 -41 81 7 143 38 135 68 -4 13 0 19 11
19 10 0 71 3 136 6 114 4 121 3 157 -20 l37 -25 36 72 c32 65 82 247 67 247
-4 0 -14 -26 -24 -58z"/>
<path d="M517 784 c-12 -12 -8 -26 6 -18 9 5 9 4 0 -6 -8 -9 -8 -20 -1 -41 8
-24 13 -27 24 -18 11 9 14 9 14 0 0 -15 78 -10 84 6 4 9 -1 10 -18 3 -13 -5
-26 -6 -29 -4 -3 3 -18 6 -34 6 -18 1 -30 6 -30 14 0 10 13 13 48 11 26 -1 45
1 43 5 -3 4 5 7 17 5 12 -1 24 5 27 13 5 13 3 13 -11 1 -15 -12 -21 -9 -19 10
1 4 -7 9 -18 12 -17 4 -18 2 -8 -16 9 -19 9 -20 -3 -11 -8 7 -26 10 -41 9 -17
-2 -31 2 -36 11 -4 8 -11 11 -15 8z"/>
<path d="M760 755 c-11 -13 -10 -14 2 -10 11 5 15 0 14 -16 0 -12 6 -24 14
-26 9 -3 11 -1 4 4 -6 4 -10 20 -9 36 2 30 -6 34 -25 12z"/>
<path d="M539 669 c-10 -6 -11 -9 -1 -9 22 0 27 -2 39 -11 14 -12 65 -1 57 13
-3 5 -11 7 -17 5 -7 -2 -24 -1 -38 3 -15 5 -33 4 -40 -1z"/>
<path d="M730 670 c-11 -7 -11 -10 -2 -10 7 0 10 -5 7 -10 -4 -6 -3 -9 2 -8 4
2 9 -1 10 -7 0 -5 -3 -9 -8 -7 -5 1 -9 -2 -9 -8 0 -12 10 -13 28 -2 14 9 6 42
-10 42 -5 0 -6 5 -3 10 8 12 4 12 -15 0z"/>
<path d="M636 633 c-4 -4 -24 -6 -44 -5 -28 2 -33 0 -22 -7 8 -6 11 -11 6 -11
-5 0 -3 -7 4 -15 7 -8 17 -12 23 -8 5 3 7 1 3 -5 -13 -21 58 -52 115 -51 30 1
42 4 27 6 -16 2 -28 8 -28 12 0 5 -12 7 -27 4 -24 -3 -25 -2 -8 6 17 8 15 10
-15 11 -28 1 -31 3 -15 9 16 7 12 10 -25 19 -39 8 -41 10 -14 11 20 1 31 6 31
16 0 17 -1 18 -11 8z"/>
<path d="M834 575 c2 -11 9 -20 16 -20 7 0 15 -6 18 -12 5 -16 -20 -17 -36 -1
-6 6 -19 13 -28 14 -14 2 -13 0 2 -17 11 -12 28 -19 44 -17 14 1 30 -1 37 -5
6 -4 14 -3 18 3 3 5 1 10 -5 10 -5 0 -23 15 -40 33 -23 26 -28 28 -26 12z"/>
<path d="M33 530 c-30 -18 -49 -50 -20 -34 9 6 9 4 -1 -7 -6 -7 -12 -24 -12
-38 l0 -26 13 25 c7 13 28 35 46 47 109 74 211 -54 125 -157 -48 -57 -152 -61
-174 -6 -8 17 -9 13 -7 -18 2 -36 5 -41 35 -48 41 -11 91 4 133 39 41 35 59
74 59 129 0 39 -5 51 -34 80 -29 29 -41 34 -82 34 -31 0 -61 -7 -81 -20z"/>
<path d="M2226 417 c0 -48 -4 -54 -42 -62 -60 -11 -54 -59 8 -67 15 -2 37 -13
49 -23 l22 -20 -5 27 c-3 15 0 30 6 32 6 3 -14 4 -44 3 -42 -1 -55 2 -58 13
-2 13 17 15 125 15 71 0 134 -4 141 -9 12 -7 12 -4 2 13 -9 17 -18 21 -38 17
-15 -3 -52 -8 -83 -12 -65 -7 -74 0 -70 57 1 21 -2 40 -6 42 -4 3 -8 -9 -7
-26z"/>
<path d="M113 404 c-3 -8 -1 -20 6 -27 14 -14 47 15 37 32 -10 16 -36 13 -43
-5z"/>
<path d="M1950 85 c-78 -22 -90 -27 -90 -36 0 -8 26 -2 45 11 6 4 38 7 73 6
34 -1 62 0 62 0 0 1 -10 8 -23 16 -19 13 -29 13 -67 3z"/>
<path d="M2120 9 c-59 -5 -55 -6 38 -7 102 -2 135 3 65 9 -21 2 -67 1 -103 -2z"/>
</g>
</svg>
