<svg id="visual" viewBox="0 0 900 600" width="900" height="600" xmlns="http://www.w3.org/2000/svg" xmlns:xlink="http://www.w3.org/1999/xlink" version="1.1"><path d="M0 432L21.5 440.3C43 448.7 86 465.3 128.8 467.8C171.7 470.3 214.3 458.7 257.2 445C300 431.3 343 415.7 385.8 427.8C428.7 440 471.3 480 514.2 485.2C557 490.3 600 460.7 642.8 459C685.7 457.3 728.3 483.7 771.2 491.8C814 500 857 490 878.5 485L900 480L900 601L878.5 601C857 601 814 601 771.2 601C728.3 601 685.7 601 642.8 601C600 601 557 601 514.2 601C471.3 601 428.7 601 385.8 601C343 601 300 601 257.2 601C214.3 601 171.7 601 128.8 601C86 601 43 601 21.5 601L0 601Z" fill="#0066FF" stroke-linecap="round" stroke-linejoin="miter"></path></svg>