<svg id="visual" viewBox="0 0 900 600" width="900" height="600" xmlns="http://www.w3.org/2000/svg" xmlns:xlink="http://www.w3.org/1999/xlink" version="1.1"><rect x="0" y="0" width="900" height="600" fill="#002233"></rect><path d="M0 435L21.5 434.5C43 434 86 433 128.8 431.7C171.7 430.3 214.3 428.7 257.2 436.8C300 445 343 463 385.8 467.5C428.7 472 471.3 463 514.2 463.5C557 464 600 474 642.8 470.3C685.7 466.7 728.3 449.3 771.2 451.2C814 453 857 474 878.5 484.5L900 495L900 601L878.5 601C857 601 814 601 771.2 601C728.3 601 685.7 601 642.8 601C600 601 557 601 514.2 601C471.3 601 428.7 601 385.8 601C343 601 300 601 257.2 601C214.3 601 171.7 601 128.8 601C86 601 43 601 21.5 601L0 601Z" fill="#0066FF" stroke-linecap="round" stroke-linejoin="miter"></path></svg>